<svg version="1.1" id="Layer_1" xmlns="http://www.w3.org/2000/svg" xmlns:xlink="http://www.w3.org/1999/xlink" x="0px" y="0px"
	 width="100%" viewBox="0 0 2683 133" enable-background="new 0 0 2683 133" xml:space="preserve">
<path fill="#25334D" opacity="1.000000" stroke="none" 
	d="
M1.000000,131.000000 
	C1.000000,94.969086 1.000000,58.938175 1.355043,22.439766 
	C5.481114,15.840202 8.866838,9.421460 15.513578,5.671909 
	C17.820190,4.370708 19.845959,2.571661 22.000000,1.000000 
	C902.030945,1.000000 1782.061890,1.000000 2662.560547,1.355032 
	C2669.159668,5.481578 2675.578613,8.866817 2679.328125,15.513609 
	C2680.629395,17.820227 2682.428467,19.845921 2684.000000,21.999973 
	C2684.000000,58.030914 2684.000000,94.061829 2683.561523,130.546432 
	C1789.082031,131.000076 895.041016,131.000046 1.000000,131.000000 
M1048.500000,20.030464 
	C1031.837524,20.032410 1015.173889,19.913328 998.512939,20.072302 
	C983.573547,20.214849 976.087158,27.863541 976.042542,42.716164 
	C975.995483,58.379185 975.901245,74.043961 976.076355,89.705185 
	C976.230652,103.509193 983.907166,110.985626 997.641296,110.986397 
	C1227.590088,110.999329 1457.538818,110.999222 1687.487549,110.985260 
	C1700.782104,110.984459 1708.603882,103.785919 1708.868896,90.574821 
	C1709.202881,73.918663 1709.223022,57.244667 1708.851562,40.590115 
	C1708.619873,30.198328 1703.327637,21.827267 1691.784546,20.737604 
	C1688.648315,20.441555 1685.501099,20.059912 1682.358887,20.059435 
	C1471.405884,20.027475 1260.453003,20.030540 1048.500000,20.030464 
M922.992065,36.673077 
	C915.601746,38.949211 908.129089,41.004677 900.895813,43.702015 
	C899.572266,44.195560 898.691650,47.257790 898.532288,49.209888 
	C898.180969,53.511215 898.891602,57.922977 898.329773,62.178913 
	C896.686768,74.625214 902.448303,82.493378 913.111938,87.688576 
	C915.052063,88.633774 916.782227,90.081459 918.787903,90.796211 
	C920.201050,91.299828 922.258789,91.557167 923.437317,90.885963 
	C928.482666,88.012451 933.475464,84.982796 938.164307,81.566528 
	C942.285156,78.564140 944.165100,74.212906 944.046021,68.964340 
	C943.894897,62.306404 943.890381,55.639442 944.058960,48.982357 
	C944.143738,45.633331 942.754517,43.619930 939.727905,42.541222 
	C934.406921,40.644817 929.083252,38.755997 922.992065,36.673077 
M2563.981445,55.501095 
	C2563.981445,58.161858 2563.981445,60.822620 2563.981445,63.483383 
	C2563.981445,77.191093 2563.981445,77.191093 2576.991211,79.452034 
	C2577.106445,80.006561 2577.306396,80.625511 2577.354980,81.256165 
	C2578.022705,89.891533 2579.802002,91.577301 2588.408691,91.595345 
	C2596.723633,91.612778 2605.039307,91.678528 2613.353027,91.570091 
	C2619.868408,91.485115 2622.457520,88.913689 2622.569336,82.449226 
	C2622.687256,75.633026 2622.598633,68.813240 2622.599121,61.995026 
	C2622.599609,48.453838 2622.599365,48.453838 2609.563965,45.694248 
	C2609.415527,44.335785 2609.275146,42.875591 2609.093750,41.420502 
	C2608.458496,36.320320 2606.155029,33.930565 2600.965088,33.837997 
	C2591.323486,33.666027 2581.673584,33.653587 2572.032471,33.847164 
	C2566.744873,33.953331 2564.198242,36.725235 2564.016602,42.031677 
	C2563.874512,46.184338 2563.983887,50.345604 2563.981445,55.501095 
M368.349670,39.757656 
	C354.693085,39.759304 341.036285,39.715561 327.380035,39.784321 
	C321.699036,39.812927 318.657990,42.059551 318.546814,47.084633 
	C318.285400,58.902222 318.333527,70.732178 318.544861,82.551971 
	C318.628754,87.244965 321.560577,89.940948 326.281952,89.968689 
	C342.436096,90.063606 358.591766,90.081924 374.745392,89.950378 
	C378.865051,89.916840 382.064392,87.688217 382.149780,83.353828 
	C382.392212,71.051689 382.373901,58.738846 382.145691,46.436016 
	C382.064911,42.080196 378.958466,40.078426 374.791718,39.805790 
	C372.967072,39.686398 371.129211,39.768024 368.349670,39.757656 
M2384.622559,58.832050 
	C2384.032227,48.457676 2380.237549,45.890537 2368.350342,47.934669 
	C2368.350342,49.604324 2368.350342,51.296478 2368.350342,53.120609 
	C2369.707764,53.180500 2370.698242,53.245228 2371.689453,53.264545 
	C2378.464600,53.396599 2378.715088,53.634396 2378.727295,60.373478 
	C2378.739746,67.204346 2378.682129,74.035660 2378.742188,80.866013 
	C2378.773193,84.366379 2377.352783,86.047371 2373.675049,86.001572 
	C2364.513184,85.887459 2355.347900,85.900681 2346.185547,85.993797 
	C2342.469971,86.031555 2341.184082,84.241760 2341.245361,80.755699 
	C2341.347900,74.926270 2341.270264,69.093681 2341.270020,63.262424 
	C2341.269287,53.750050 2341.270264,53.753433 2350.826172,53.125767 
	C2351.113037,53.106903 2351.384277,52.845207 2351.865967,52.588394 
	C2351.912109,51.721149 2352.018799,50.737926 2351.997314,49.757545 
	C2351.983398,49.125450 2351.781494,48.497494 2351.675049,47.927380 
	C2338.789795,45.777809 2335.377686,48.611488 2335.376465,61.288197 
	C2335.375732,67.952492 2335.315674,74.617508 2335.393555,81.280899 
	C2335.482666,88.928162 2338.012451,91.693520 2345.505615,91.830948 
	C2355.165771,92.008102 2364.833740,92.004517 2374.493896,91.831604 
	C2381.825439,91.700371 2384.375488,89.124763 2384.569580,81.752388 
	C2384.762695,74.426659 2384.618896,67.092064 2384.622559,58.832050 
M2476.469727,82.675117 
	C2476.536133,78.184822 2476.692383,73.693352 2476.633789,69.204697 
	C2476.600586,66.685989 2477.489258,65.538139 2480.109375,65.640686 
	C2483.266846,65.764282 2486.437744,65.759460 2489.594971,65.626427 
	C2492.231445,65.515320 2496.067383,66.603737 2495.972412,62.245182 
	C2495.888184,58.383644 2492.344971,59.157715 2489.791504,59.114292 
	C2485.535645,59.041924 2481.277588,59.094551 2476.652832,59.094551 
	C2476.652832,53.635654 2476.926758,48.964645 2476.504150,44.357491 
	C2476.356445,42.747715 2474.492432,41.295319 2473.412354,39.771061 
	C2472.307373,41.276016 2470.391846,42.708317 2470.249268,44.299557 
	C2469.824707,49.033951 2470.097168,53.830837 2470.097168,59.096897 
	C2464.841309,59.096897 2460.187012,58.781921 2455.614014,59.255028 
	C2453.835205,59.439068 2452.239990,61.400642 2450.561279,62.552513 
	C2452.184326,63.586040 2453.742676,65.362755 2455.442871,65.510887 
	C2460.153809,65.921333 2464.924316,65.653114 2470.101074,65.653114 
	C2470.101074,71.278381 2469.969482,76.081566 2470.140137,80.873978 
	C2470.296631,85.266800 2472.208740,86.016556 2476.469727,82.675117 
M131.515976,59.203709 
	C126.378807,72.729347 138.407562,88.876335 155.393845,84.468452 
	C164.190582,82.185730 169.872513,74.250809 169.607742,65.164253 
	C169.334625,55.791393 163.131989,48.382065 153.951279,46.461926 
	C144.659790,44.518623 136.273026,49.074425 131.515976,59.203709 
M90.063782,84.697151 
	C91.156784,84.305840 92.285454,83.992401 93.337120,83.510818 
	C101.264557,79.880623 105.882278,71.684677 104.791512,63.249416 
	C103.689514,54.727333 97.206299,47.885353 88.760628,46.331448 
	C80.187553,44.754097 71.409645,49.029339 67.643829,57.026161 
	C64.440315,63.828911 64.838181,70.692688 69.186813,76.892639 
	C74.060783,83.841576 81.046516,86.121338 90.063782,84.697151 
M203.801498,81.847878 
	C214.375854,88.125488 226.725403,85.120667 232.221237,74.932961 
	C237.419266,65.297272 233.515762,53.019283 223.679657,48.066452 
	C214.870316,43.630638 204.116516,46.496662 198.531769,54.768665 
	C192.608246,63.542477 194.348053,73.483681 203.801498,81.847878 
M482.212097,53.705944 
	C484.485535,51.506481 487.028748,49.510193 488.908569,47.014271 
	C489.738464,45.912338 489.222504,43.796734 489.317566,42.141331 
	C487.698914,42.310539 485.518066,41.865215 484.552643,42.748447 
	C478.165863,48.591251 471.950928,54.632721 465.919861,60.842434 
	C464.950867,61.840107 464.332611,64.813728 464.989685,65.502350 
	C471.537750,72.365044 478.326935,79.004379 485.243225,85.498871 
	C485.960480,86.172363 488.762878,85.993462 489.150482,85.344994 
	C489.813538,84.235657 489.691956,82.314461 489.219299,80.974258 
	C488.818420,79.837624 487.476959,79.018440 486.515961,78.095978 
	C481.637115,73.412781 476.746582,68.741692 471.986572,64.187309 
	C475.675446,60.401314 478.692535,57.304752 482.212097,53.705944 
M579.426208,84.316978 
	C581.744629,87.145760 584.067261,86.265503 586.205200,84.174538 
	C591.916565,78.588570 597.546082,72.919029 603.231140,67.306030 
	C605.399109,65.165565 605.610107,63.036098 603.389038,60.820286 
	C597.379578,54.825077 591.468323,48.724396 585.257629,42.945492 
	C584.260254,42.017464 581.923584,42.528870 580.206055,42.374870 
	C580.483887,44.084812 580.182800,46.291981 581.145935,47.413296 
	C584.281433,51.063850 587.915710,54.281609 591.291077,57.731422 
	C598.413452,65.010880 598.354431,62.902142 591.455139,70.060928 
	C587.239380,74.435226 583.311829,79.087318 579.426208,84.316978 
M2357.094727,52.512543 
	C2357.111084,57.336639 2356.938477,62.174335 2357.284180,66.974701 
	C2357.364502,68.093346 2359.206299,69.085281 2360.237549,70.135483 
	C2361.033691,69.068062 2362.440674,68.042534 2362.517578,66.925797 
	C2362.801514,62.785614 2362.651367,58.615356 2362.655518,54.456390 
	C2362.660645,49.428040 2362.656982,44.399681 2362.656982,38.205982 
	C2364.664551,40.065014 2365.468018,41.259903 2366.577148,41.723316 
	C2367.991455,42.314167 2369.652588,42.313652 2371.207275,42.568066 
	C2370.780518,41.161201 2370.785645,39.305473 2369.861084,38.415550 
	C2357.785400,26.792509 2361.888916,27.594845 2349.922119,38.397907 
	C2349.675537,38.620430 2349.288330,38.836269 2349.240479,39.104118 
	C2349.031250,40.276215 2348.922607,41.466320 2348.777832,42.649933 
	C2350.104492,42.588337 2351.644775,42.929100 2352.705566,42.366344 
	C2354.124268,41.613850 2355.171143,40.160854 2357.094482,38.324425 
	C2357.094482,43.561485 2357.094482,47.541813 2357.094727,52.512543 
z"/>
<path fill="#FFFFFF" opacity="1.000000" stroke="none" 
	d="
M1.000000,131.499756 
	C895.041016,131.000046 1789.082031,131.000076 2683.561523,131.000061 
	C2684.000000,131.999817 2684.000000,132.999619 2684.000000,133.999725 
	C1791.166138,134.000000 898.332214,134.001450 5.498305,133.859024 
	C4.210108,133.858826 0.871087,136.327820 1.000000,131.499756 
z"/>
<path fill="#000000" opacity="1.000000" stroke="none" 
	d="
M21.531088,1.000000 
	C19.845959,2.571661 17.820190,4.370708 15.513578,5.671909 
	C8.866838,9.421460 5.481114,15.840202 1.355043,21.986134 
	C1.000000,15.073850 1.000000,8.147699 1.000000,1.000000 
	C7.685770,1.000000 14.373973,1.000000 21.531088,1.000000 
z"/>
<path fill="#000000" opacity="1.000000" stroke="none" 
	d="
M2684.000000,21.531061 
	C2682.428467,19.845921 2680.629395,17.820227 2679.328125,15.513609 
	C2675.578613,8.866817 2669.159668,5.481578 2663.014160,1.355032 
	C2669.926270,1.000000 2676.852295,1.000000 2684.000000,1.000000 
	C2684.000000,7.685771 2684.000000,14.373974 2684.000000,21.531061 
z"/>
<path fill="#3D5275" opacity="1.000000" stroke="none" 
	d="
M1049.000000,20.030521 
	C1260.453003,20.030540 1471.405884,20.027475 1682.358887,20.059435 
	C1685.501099,20.059912 1688.648315,20.441555 1691.784546,20.737604 
	C1703.327637,21.827267 1708.619873,30.198328 1708.851562,40.590115 
	C1709.223022,57.244667 1709.202881,73.918663 1708.868896,90.574821 
	C1708.603882,103.785919 1700.782104,110.984459 1687.487549,110.985260 
	C1457.538818,110.999222 1227.590088,110.999329 997.641296,110.986397 
	C983.907166,110.985626 976.230652,103.509193 976.076355,89.705185 
	C975.901245,74.043961 975.995483,58.379185 976.042542,42.716164 
	C976.087158,27.863541 983.573547,20.214849 998.512939,20.072302 
	C1015.173889,19.913328 1031.837524,20.032410 1049.000000,20.030521 
M1053.874390,82.306717 
	C1053.874390,78.978523 1053.673340,75.635361 1053.919800,72.325516 
	C1054.329590,66.821472 1053.726196,62.178055 1046.914673,61.899654 
	C1045.638672,47.849918 1042.397949,43.139404 1034.251831,43.128098 
	C1025.998779,43.116646 1023.013855,47.568478 1021.644409,62.202381 
	C1015.557556,62.049515 1014.349060,65.728798 1014.718567,71.023483 
	C1015.042114,75.660370 1014.763306,80.337837 1014.792175,84.997116 
	C1014.828186,90.803772 1015.900269,91.849937 1021.875122,91.868492 
	C1029.696289,91.892784 1037.517578,91.877724 1045.338745,91.873596 
	C1052.905396,91.869606 1053.832642,90.928902 1053.874390,82.306717 
M1675.387085,59.838593 
	C1679.940796,55.220188 1679.938110,55.222794 1675.481079,50.540581 
	C1674.908691,49.939369 1674.491455,49.104511 1673.810181,48.709309 
	C1671.897339,47.599934 1669.884277,46.663738 1667.910645,45.659237 
	C1668.714355,47.570385 1669.521362,49.480206 1670.315186,51.395416 
	C1670.373291,51.535576 1670.336792,51.714909 1670.352173,52.046741 
	C1668.756226,52.337128 1667.120850,52.566097 1665.518677,52.937645 
	C1657.149170,54.878521 1651.939453,62.656475 1652.842529,71.806892 
	C1653.651611,80.004890 1661.069946,86.555687 1669.597900,86.602844 
	C1678.227783,86.650566 1685.713867,80.465843 1686.672607,72.169365 
	C1686.838745,70.732430 1685.681519,69.142570 1685.135498,67.623360 
	C1684.320068,68.783783 1683.410889,69.890472 1682.708252,71.115547 
	C1681.169678,73.798569 1680.234619,77.028946 1678.154785,79.158371 
	C1673.890991,83.523636 1666.551270,83.433250 1661.696655,79.604034 
	C1657.027954,75.921455 1655.466187,69.130264 1658.067871,63.823635 
	C1660.701416,58.452045 1665.783936,55.991386 1671.627319,57.511665 
	C1670.520386,58.693420 1669.317383,59.633320 1668.597290,60.857269 
	C1668.039795,61.804707 1668.086670,63.107735 1667.864990,64.252724 
	C1669.018921,64.123085 1670.392578,64.341331 1671.276123,63.783432 
	C1672.650391,62.915794 1673.691406,61.520470 1675.387085,59.838593 
M1187.317871,56.790611 
	C1184.259399,55.978413 1183.726318,58.119270 1183.143799,60.297375 
	C1181.947021,64.774101 1180.694214,69.235901 1179.464478,73.703835 
	C1176.992432,68.661659 1175.727905,63.850216 1174.201660,59.123230 
	C1173.889038,58.154842 1172.498535,56.776470 1171.778198,56.873550 
	C1170.669556,57.022972 1169.403809,58.095020 1168.767822,59.123760 
	C1168.010620,60.348675 1167.850830,61.942181 1167.428223,63.374821 
	C1166.366577,66.974129 1165.302612,70.572769 1164.239624,74.171700 
	C1162.034546,69.234085 1160.738281,64.599091 1159.671997,59.911743 
	C1158.945679,56.719048 1157.327026,56.041264 1154.279663,57.339279 
	C1156.238159,64.116882 1158.309692,70.592735 1159.932739,77.179092 
	C1160.812134,80.748352 1162.492188,81.873940 1166.043579,80.580681 
	C1167.673584,75.145012 1169.336914,69.598251 1171.405762,62.699463 
	C1173.164307,69.007744 1174.379272,73.836945 1175.929443,78.556068 
	C1176.266357,79.581757 1177.732300,80.714813 1178.811646,80.869934 
	C1179.706055,80.998459 1181.436035,79.955978 1181.700317,79.095856 
	C1183.929810,71.836403 1185.907227,64.499542 1187.317871,56.790611 
M1222.964722,65.530937 
	C1223.762939,62.752316 1224.561279,59.973690 1225.359619,57.195065 
	C1224.814819,56.953671 1224.270020,56.712276 1223.725342,56.470886 
	C1216.798096,59.746948 1220.400513,68.965614 1215.417480,73.852654 
	C1214.075195,68.960922 1212.980469,64.442841 1211.536255,60.039471 
	C1211.116211,58.759266 1209.696411,57.807003 1208.734863,56.704395 
	C1207.600342,57.811760 1205.898926,58.722519 1205.434326,60.062206 
	C1203.835449,64.672256 1202.668945,69.432259 1201.337646,74.135132 
	C1199.085205,69.338394 1197.757568,64.648109 1196.670776,59.902691 
	C1195.936890,56.698761 1194.311523,56.056988 1191.277954,57.335377 
	C1193.239136,64.121399 1195.310181,70.595413 1196.932861,77.179916 
	C1197.812134,80.747780 1199.491455,81.873756 1203.044067,80.580727 
	C1204.673828,75.143761 1206.337158,69.594521 1208.404785,62.696613 
	C1210.116943,68.836563 1211.268311,73.511017 1212.792236,78.060661 
	C1213.190186,79.248611 1214.766357,80.837540 1215.768433,80.814484 
	C1216.877808,80.788963 1218.476074,79.330826 1218.940796,78.137924 
	C1220.441528,74.284477 1221.519409,70.266251 1222.964722,65.530937 
M1145.744141,79.328407 
	C1147.962891,71.959755 1150.181641,64.591095 1152.400391,57.222435 
	C1151.842163,56.971977 1151.283936,56.721519 1150.725586,56.471066 
	C1143.798828,59.747452 1147.400391,68.966026 1142.417603,73.853004 
	C1141.075317,68.961876 1139.980835,64.443764 1138.536621,60.040321 
	C1138.116699,58.759895 1136.697144,57.807320 1135.735840,56.704449 
	C1134.601074,57.811485 1132.899048,58.721714 1132.434448,60.061237 
	C1130.835327,64.671333 1129.668945,69.431572 1128.337646,74.134590 
	C1126.085571,69.340080 1124.758179,64.649261 1123.671021,59.903419 
	C1122.937256,56.700489 1121.312744,56.055790 1118.278076,57.335629 
	C1120.239136,64.120758 1122.310303,70.594749 1123.932861,77.179337 
	C1124.812134,80.746948 1126.490479,81.874176 1130.043579,80.580902 
	C1131.673584,75.143509 1133.336914,69.594513 1135.413574,62.666832 
	C1137.068115,68.678200 1138.448242,73.116257 1139.484253,77.633270 
	C1140.369019,81.490700 1142.296021,81.973732 1145.744141,79.328407 
M1286.318237,61.001003 
	C1286.318359,69.630592 1286.409180,78.261597 1286.274780,86.889084 
	C1286.220581,90.364716 1287.442139,91.344101 1290.961670,90.015396 
	C1290.961670,86.676506 1290.961670,83.420647 1290.961670,80.063171 
	C1299.473755,82.565948 1303.517944,81.610764 1306.530518,76.581108 
	C1309.734497,71.231705 1308.934448,62.086678 1304.943359,58.441162 
	C1301.354980,55.163433 1296.873047,55.271912 1292.046021,58.366692 
	C1290.457275,57.698872 1289.036865,56.558853 1288.156250,56.883495 
	C1287.265625,57.211861 1286.909546,58.990360 1286.318237,61.001003 
M1439.504761,81.012321 
	C1440.564453,80.176605 1442.485352,79.393562 1442.540161,78.496391 
	C1442.834595,73.685181 1442.962158,68.821922 1442.582153,64.021408 
	C1442.056274,57.379467 1436.467529,54.279789 1430.337158,56.897549 
	C1429.312256,57.335201 1428.346680,57.911289 1426.780884,58.718765 
	C1426.780884,54.155437 1426.780884,50.083893 1426.780884,46.012348 
	C1426.385742,45.716740 1425.990601,45.421127 1425.595459,45.125519 
	C1424.503540,46.026787 1422.480225,46.909306 1422.461670,47.832199 
	C1422.241211,58.784843 1422.319580,69.743507 1422.319580,80.664642 
	C1426.813843,80.892395 1426.858032,80.893272 1426.925415,77.511887 
	C1427.001709,73.682724 1426.790161,69.837265 1427.069580,66.025696 
	C1427.346802,62.245438 1429.312012,59.694603 1433.493774,59.998760 
	C1437.445312,60.286167 1438.046509,63.111168 1438.092529,66.421761 
	C1438.158936,71.208633 1438.443481,75.992462 1439.504761,81.012321 
M1362.783691,66.670914 
	C1362.354370,59.871513 1361.924927,53.072109 1361.466187,45.808064 
	C1360.185181,45.873844 1358.834839,45.943188 1357.316650,46.021145 
	C1357.316650,56.840126 1357.404297,67.147118 1357.269775,77.451218 
	C1357.221924,81.126671 1358.726074,81.613297 1361.636963,80.564415 
	C1362.347534,71.765259 1362.347534,71.765259 1365.387817,70.044281 
	C1370.394653,72.654411 1369.594971,81.778465 1378.501221,80.893326 
	C1374.972046,75.662605 1371.771851,70.919464 1368.560669,66.160042 
	C1371.539917,63.006878 1374.175415,60.217491 1376.810913,57.428108 
	C1376.475342,56.962646 1376.139771,56.497185 1375.804321,56.031723 
	C1373.949707,57.007996 1371.838257,57.688950 1370.299072,59.027779 
	C1367.804077,61.197948 1365.684326,63.799660 1362.783691,66.670914 
M1463.308716,56.856136 
	C1454.934082,54.808796 1450.760620,56.648205 1449.199463,64.240387 
	C1451.294312,63.041515 1452.578369,61.961979 1454.050415,61.542953 
	C1456.405273,60.872604 1458.995972,60.052616 1461.263306,60.480694 
	C1462.335815,60.683212 1462.890503,63.628769 1463.805908,65.603577 
	C1459.930054,66.061050 1457.092651,66.130699 1454.391113,66.772400 
	C1449.420898,67.952980 1447.396362,70.857323 1447.995605,75.288467 
	C1448.547852,79.371895 1451.973633,81.992668 1456.677979,81.619102 
	C1460.318115,81.330048 1463.931641,80.704544 1467.908813,80.182411 
	C1467.908813,75.172668 1468.298828,69.672714 1467.734131,64.272629 
	C1467.475220,61.797848 1465.339600,59.519344 1463.308716,56.856136 
M1546.967773,81.581436 
	C1554.010376,81.602219 1556.250732,80.242592 1558.956177,73.420769 
	C1556.728882,74.344299 1555.292480,75.060059 1553.780884,75.538864 
	C1551.432251,76.282822 1548.558960,77.984337 1546.775879,77.229622 
	C1544.613159,76.314209 1543.352661,73.267113 1541.701660,71.142380 
	C1542.062622,70.664330 1542.423706,70.186272 1542.784668,69.708221 
	C1548.156372,69.708221 1553.527954,69.708221 1558.809204,69.708221 
	C1559.965332,59.496029 1553.124512,53.546631 1544.763672,56.803997 
	C1540.127686,58.610130 1537.790527,62.888168 1537.864746,69.431168 
	C1537.938965,75.964417 1540.235352,79.266304 1546.967773,81.581436 
M1386.110840,80.613266 
	C1390.655640,82.378609 1395.050293,82.186546 1398.662476,78.731812 
	C1402.791870,74.782616 1403.300537,69.716522 1401.967163,64.408394 
	C1400.665894,59.227615 1396.763306,56.187023 1391.533813,56.094498 
	C1386.213989,56.000374 1382.237793,58.792927 1380.572144,63.793339 
	C1378.440308,70.193222 1380.120483,75.834427 1386.110840,80.613266 
M1527.013062,64.131142 
	C1527.013062,69.588676 1527.013062,75.046219 1527.013062,80.767227 
	C1528.702148,80.767227 1529.938599,80.767227 1531.568115,80.767227 
	C1531.568115,74.855530 1531.874268,69.050865 1531.466309,63.296810 
	C1531.166626,59.067909 1528.586304,56.375160 1524.002930,56.054539 
	C1519.829590,55.762600 1516.149536,60.189545 1511.533936,55.946110 
	C1511.533936,65.031357 1511.533936,72.775856 1511.533936,80.780571 
	C1512.997070,80.780571 1514.231445,80.780571 1516.040649,80.780571 
	C1516.040649,75.828552 1515.594604,70.979836 1516.237915,66.280220 
	C1516.537842,64.088791 1518.531860,61.431347 1520.506470,60.342140 
	C1523.024536,58.953175 1525.673584,60.242256 1527.013062,64.131142 
M1275.970093,65.357178 
	C1275.809326,67.840851 1275.784302,70.342674 1275.455566,72.803894 
	C1274.979004,76.369896 1272.685059,78.105301 1269.200562,77.736717 
	C1266.006348,77.398842 1264.841919,75.169937 1264.887939,72.077713 
	C1264.961304,67.129967 1264.907471,62.180328 1264.907471,57.231491 
	C1264.506348,56.897697 1264.105225,56.563908 1263.704102,56.230118 
	C1262.589966,57.205143 1260.570923,58.130882 1260.514648,59.163521 
	C1260.234985,64.296799 1260.184937,69.482231 1260.612427,74.602692 
	C1261.003906,79.294495 1264.110107,81.863701 1268.706543,81.575241 
	C1272.379272,81.344772 1276.015259,80.530197 1280.027222,79.920189 
	C1280.027222,73.378807 1280.031982,66.245903 1280.018799,59.113029 
	C1280.017700,58.474911 1279.899536,57.837009 1279.835693,57.199009 
	C1279.465088,56.881523 1279.094482,56.564037 1278.723877,56.246552 
	C1277.806519,57.313740 1276.455444,58.249481 1276.082031,59.481548 
	C1275.620483,61.004646 1275.970825,62.773811 1275.970093,65.357178 
M1242.427124,60.840714 
	C1247.360596,56.167194 1250.427124,64.478867 1255.061279,63.043056 
	C1253.374878,56.805653 1247.437988,53.997528 1241.764038,57.015076 
	C1239.794312,58.062584 1237.802490,60.852192 1237.646362,62.979954 
	C1237.513916,64.786522 1239.637817,67.330856 1241.438599,68.557648 
	C1243.549316,69.995758 1246.542847,70.077576 1248.850342,71.313438 
	C1249.991211,71.924431 1251.207031,73.937294 1251.008423,75.074875 
	C1250.809326,76.215462 1248.834961,77.916580 1247.739990,77.844101 
	C1245.638916,77.705009 1243.590332,76.531776 1241.556641,75.697929 
	C1240.029663,75.071899 1238.560181,74.305695 1236.192383,73.191048 
	C1238.911133,81.586494 1248.074097,84.193420 1253.579224,79.426277 
	C1257.122437,76.358047 1256.756714,70.735252 1252.632568,68.448318 
	C1250.488892,67.259674 1247.793823,67.042641 1245.699707,65.795815 
	C1244.171265,64.885811 1243.217651,63.010529 1242.427124,60.840714 
M1352.148438,78.037430 
	C1350.765259,76.987976 1348.303223,76.044052 1348.188599,74.870506 
	C1347.729248,70.175819 1347.998901,65.409828 1347.998901,61.848579 
	C1350.500854,60.240334 1352.052856,59.242752 1353.604736,58.245171 
	C1353.342773,57.838272 1353.080933,57.431374 1352.818970,57.024475 
	C1351.255859,56.757832 1349.692749,56.491184 1347.897705,56.184986 
	C1347.897705,54.946274 1348.153931,53.870766 1347.837280,53.004791 
	C1347.369385,51.725288 1346.494141,50.594715 1345.792358,49.400730 
	C1345.092773,50.603722 1344.491211,51.878712 1343.671631,52.993416 
	C1342.337036,54.808315 1339.749023,56.521797 1339.754150,58.272068 
	C1339.759399,60.041046 1342.372803,61.736271 1343.629761,63.607502 
	C1344.014282,64.180161 1343.687988,65.227127 1343.695557,66.056831 
	C1343.728760,69.706093 1343.228271,73.478935 1344.027710,76.952255 
	C1344.425903,78.682358 1347.013672,80.341530 1348.974487,81.136627 
	C1350.442139,81.731728 1353.330566,82.067825 1352.148438,78.037430 
M1414.034668,77.204697 
	C1413.507446,71.760551 1412.980103,66.316399 1412.544067,61.814144 
	C1415.182739,60.351437 1416.720337,59.499062 1418.258057,58.646713 
	C1416.676880,57.661537 1415.095825,56.676365 1413.514648,55.691189 
	C1411.572876,54.258503 1415.363159,48.778320 1409.205444,49.551155 
	C1408.716064,52.895657 1408.472046,53.163319 1404.964722,57.257076 
	C1404.557373,57.732483 1405.178711,59.965714 1405.407227,59.979374 
	C1409.670654,60.234249 1408.618652,63.379017 1408.676392,65.837158 
	C1408.754150,69.152725 1408.696533,72.471329 1408.708862,75.788589 
	C1408.723511,79.756989 1410.794312,81.618759 1414.670288,81.238754 
	C1415.762817,81.131630 1416.782471,80.280098 1417.835449,79.769913 
	C1416.801270,79.068260 1415.767212,78.366608 1414.034668,77.204697 
M1565.696899,74.824715 
	C1566.222046,80.306030 1568.148438,82.125381 1572.687012,81.228508 
	C1573.471191,81.073563 1574.124390,80.257111 1574.838135,79.746216 
	C1574.279419,79.143021 1573.740967,78.519325 1573.157593,77.941154 
	C1572.119263,76.912079 1570.220703,75.969757 1570.143555,74.887115 
	C1569.808228,70.173622 1569.999512,65.422638 1569.999512,61.823486 
	C1572.485718,60.249062 1574.052612,59.256882 1575.619385,58.264706 
	C1575.362061,57.847378 1575.104858,57.430054 1574.847656,57.012730 
	C1573.280884,56.755611 1571.714111,56.498493 1570.046387,56.224800 
	C1569.989014,54.987762 1570.171021,53.919563 1569.843994,53.040813 
	C1569.366089,51.756798 1568.522949,50.608780 1567.835449,49.402805 
	C1567.121704,50.589100 1565.582153,52.003265 1565.835815,52.922550 
	C1566.988159,57.098564 1561.337891,55.976391 1561.681274,58.181187 
	C1561.982788,60.117210 1564.338379,61.698116 1565.640869,63.538994 
	C1565.954346,63.981922 1565.693604,64.832542 1565.693970,65.495682 
	C1565.695190,68.314064 1565.695068,71.132439 1565.696899,74.824715 
M1478.975586,68.061668 
	C1479.308350,64.433243 1480.881714,61.967209 1484.600708,60.715523 
	C1485.820435,60.305031 1486.474487,58.214050 1487.387207,56.891552 
	C1486.906372,56.487690 1486.425415,56.083824 1485.944580,55.679958 
	C1483.697754,56.885933 1481.450806,58.091904 1480.348389,58.683647 
	C1478.170166,57.766674 1476.575928,57.095531 1474.308472,56.141003 
	C1474.308472,64.314888 1474.383057,71.115189 1474.278931,77.912758 
	C1474.221558,81.656921 1476.224487,81.231834 1478.943359,80.640244 
	C1478.943359,76.559158 1478.943359,72.758369 1478.975586,68.061668 
M1318.937866,69.844597 
	C1318.887085,65.510689 1319.997314,62.093262 1324.809326,60.673939 
	C1325.971191,60.331226 1326.618774,58.244286 1327.502930,56.959438 
	C1327.059570,56.530735 1326.616333,56.102028 1326.173096,55.673325 
	C1323.907593,56.837181 1321.641968,58.001038 1319.963745,58.863209 
	C1318.372559,57.987366 1316.821533,57.133579 1314.531006,55.872803 
	C1314.531006,65.033630 1314.531006,72.771507 1314.531006,80.775116 
	C1315.989868,80.775116 1317.223267,80.775116 1318.937012,80.775116 
	C1318.937012,77.336365 1318.937012,74.049248 1318.937866,69.844597 
M1491.288208,72.421402 
	C1491.288818,74.080391 1491.389404,75.746666 1491.269165,77.396866 
	C1491.011963,80.927834 1492.546753,81.719124 1495.737061,80.577011 
	C1495.737061,72.672867 1495.737061,64.941513 1495.737061,56.738110 
	C1494.141479,56.839722 1492.787231,56.925968 1491.288330,57.021427 
	C1491.288330,62.163017 1491.288330,66.804024 1491.288208,72.421402 
M1334.948120,70.475311 
	C1334.948120,66.039330 1334.948120,61.603355 1334.948120,56.684353 
	C1333.105957,56.831459 1331.759399,56.938984 1330.290283,57.056301 
	C1330.290283,64.199600 1330.388916,70.833305 1330.250732,77.462059 
	C1330.175903,81.051926 1331.556152,81.837791 1334.948120,80.306633 
	C1334.948120,77.390938 1334.948120,74.423744 1334.948120,70.475311 
M1491.998169,50.810818 
	C1496.678223,51.999165 1496.187256,49.148117 1495.665161,46.147518 
	C1491.361572,44.593754 1490.879272,46.844139 1491.998169,50.810818 
M1334.940552,47.858910 
	C1333.778320,46.966640 1332.616089,46.074375 1330.613770,44.537197 
	C1330.613770,47.707188 1330.613770,49.220207 1330.613770,50.733223 
	C1330.976318,51.027924 1331.338867,51.322628 1331.701416,51.617332 
	C1332.781372,50.631725 1333.861450,49.646122 1334.940552,47.858910 
M1230.996216,78.396660 
	C1231.027222,75.789597 1231.496216,72.744225 1227.026733,74.485329 
	C1227.026733,76.571442 1227.026733,78.604065 1227.026733,81.893860 
	C1228.835815,80.710487 1229.909668,80.008041 1230.996216,78.396660 
M1505.270508,80.882828 
	C1505.568848,78.740616 1505.867065,76.598404 1506.165405,74.456192 
	C1505.724976,74.129623 1505.284668,73.803055 1504.844238,73.476479 
	C1503.817383,74.356430 1501.972290,75.205521 1501.937622,76.122864 
	C1501.870483,77.904053 1500.150879,81.154251 1505.270508,80.882828 
z"/>
<path fill="#B4B4B5" opacity="1.000000" stroke="none" 
	d="
M923.376404,36.768543 
	C929.083252,38.755997 934.406921,40.644817 939.727905,42.541222 
	C942.754517,43.619930 944.143738,45.633331 944.058960,48.982357 
	C943.890381,55.639442 943.894897,62.306404 944.046021,68.964340 
	C944.165100,74.212906 942.285156,78.564140 938.164307,81.566528 
	C933.475464,84.982796 928.482666,88.012451 923.437317,90.885963 
	C922.258789,91.557167 920.201050,91.299828 918.787903,90.796211 
	C916.782227,90.081459 915.052063,88.633774 913.111938,87.688576 
	C902.448303,82.493378 896.686768,74.625214 898.329773,62.178913 
	C898.891602,57.922977 898.180969,53.511215 898.532288,49.209888 
	C898.691650,47.257790 899.572266,44.195560 900.895813,43.702015 
	C908.129089,41.004677 915.601746,38.949211 923.376404,36.768543 
M921.403259,63.499886 
	C921.403259,70.565804 921.403259,77.631714 921.403259,84.945030 
	C935.244019,79.872414 938.859680,74.825813 938.859375,61.322533 
	C938.859253,58.001667 939.010437,54.670063 938.779297,51.365261 
	C938.688049,50.061317 938.063110,48.070137 937.132324,47.670601 
	C932.197327,45.552418 927.087708,43.840870 921.403870,41.755566 
	C921.403870,49.268188 921.403870,55.884151 921.403259,63.499886 
z"/>
<path fill="#B1B2B3" opacity="1.000000" stroke="none" 
	d="
M2563.981445,55.002071 
	C2563.983887,50.345604 2563.874512,46.184338 2564.016602,42.031677 
	C2564.198242,36.725235 2566.744873,33.953331 2572.032471,33.847164 
	C2581.673584,33.653587 2591.323486,33.666027 2600.965088,33.837997 
	C2606.155029,33.930565 2608.458496,36.320320 2609.093750,41.420502 
	C2609.275146,42.875591 2609.415527,44.335785 2609.563965,45.694248 
	C2622.599365,48.453838 2622.599609,48.453838 2622.599121,61.995026 
	C2622.598633,68.813240 2622.687256,75.633026 2622.569336,82.449226 
	C2622.457520,88.913689 2619.868408,91.485115 2613.353027,91.570091 
	C2605.039307,91.678528 2596.723633,91.612778 2588.408691,91.595345 
	C2579.802002,91.577301 2578.022705,89.891533 2577.354980,81.256165 
	C2577.306396,80.625511 2577.106445,80.006561 2576.991211,79.452034 
	C2563.981445,77.191093 2563.981445,77.191093 2563.981445,63.483383 
	C2563.981445,60.822620 2563.981445,58.161858 2563.981445,55.002071 
M2584.541748,52.900295 
	C2584.058594,53.735970 2583.166016,54.566559 2583.155518,55.408104 
	C2583.044189,64.370644 2582.898193,73.341957 2583.259033,82.290802 
	C2583.310547,83.572647 2585.954346,85.743790 2587.469727,85.807495 
	C2595.756104,86.155937 2604.064697,85.966347 2612.365723,85.979820 
	C2615.428467,85.984795 2616.978271,84.514595 2616.976074,81.429161 
	C2616.970215,73.128098 2617.183594,64.816727 2616.779297,56.535305 
	C2616.705566,55.028297 2614.160645,52.446743 2612.689697,52.398495 
	C2603.579590,52.099712 2594.450684,52.383076 2584.541748,52.900295 
M2592.494629,46.620468 
	C2594.992432,46.619068 2597.527100,46.871357 2599.972656,46.512497 
	C2601.252930,46.324604 2603.392578,45.020229 2603.361328,44.296600 
	C2603.294189,42.737968 2602.319580,41.010571 2601.229248,39.786194 
	C2600.629883,39.113319 2599.041992,39.165520 2597.898193,39.157955 
	C2590.405518,39.108406 2582.910889,39.208828 2575.419434,39.101295 
	C2571.212891,39.040913 2569.330811,40.920338 2569.372314,45.099442 
	C2569.445312,52.425304 2569.309814,59.753517 2569.408203,67.078773 
	C2569.487793,72.999794 2571.204834,74.084557 2577.622070,72.204971 
	C2577.622070,66.854256 2577.574707,61.378613 2577.634277,55.904129 
	C2577.707520,49.165691 2579.913330,46.896992 2586.532715,46.640564 
	C2588.195557,46.576160 2589.862793,46.623764 2592.494629,46.620468 
z"/>
<path fill="#B2B3B3" opacity="1.000000" stroke="none" 
	d="
M368.823517,39.758015 
	C371.129211,39.768024 372.967072,39.686398 374.791718,39.805790 
	C378.958466,40.078426 382.064911,42.080196 382.145691,46.436016 
	C382.373901,58.738846 382.392212,71.051689 382.149780,83.353828 
	C382.064392,87.688217 378.865051,89.916840 374.745392,89.950378 
	C358.591766,90.081924 342.436096,90.063606 326.281952,89.968689 
	C321.560577,89.940948 318.628754,87.244965 318.544861,82.551971 
	C318.333527,70.732178 318.285400,58.902222 318.546814,47.084633 
	C318.657990,42.059551 321.699036,39.812927 327.380035,39.784321 
	C341.036285,39.715561 354.693085,39.759304 368.823517,39.758015 
M345.162903,80.288528 
	C344.996887,82.687508 345.293884,84.508179 348.482269,84.458183 
	C356.460175,84.333069 364.441284,84.411873 372.421112,84.406616 
	C375.569489,84.404549 376.851318,82.715591 376.841309,79.687073 
	C376.808411,69.712273 376.958344,59.733765 376.688660,49.766132 
	C376.647552,48.247967 374.801392,45.525280 373.712555,45.485546 
	C364.328125,45.143074 354.925903,45.288643 345.161530,45.288643 
	C345.161530,57.096104 345.161530,68.212845 345.162903,80.288528 
M340.001709,71.489479 
	C340.001709,62.883095 340.001709,54.276711 340.001709,45.163960 
	C335.953705,45.163960 332.495422,45.186131 329.037537,45.157799 
	C325.492981,45.128761 323.925873,46.828308 323.973419,50.388851 
	C324.066772,57.382458 323.998596,64.378212 323.998413,71.373077 
	C323.997986,85.540161 324.731659,86.161491 339.052856,84.108978 
	C339.190063,84.089317 339.307373,83.930420 340.001709,83.415390 
	C340.001709,80.065620 340.001709,76.274605 340.001709,71.489479 
z"/>
<path fill="#AEAEB0" opacity="1.000000" stroke="none" 
	d="
M2384.622803,59.296707 
	C2384.618896,67.092064 2384.762695,74.426659 2384.569580,81.752388 
	C2384.375488,89.124763 2381.825439,91.700371 2374.493896,91.831604 
	C2364.833740,92.004517 2355.165771,92.008102 2345.505615,91.830948 
	C2338.012451,91.693520 2335.482666,88.928162 2335.393555,81.280899 
	C2335.315674,74.617508 2335.375732,67.952492 2335.376465,61.288197 
	C2335.377686,48.611488 2338.789795,45.777809 2351.675049,47.927380 
	C2351.781494,48.497494 2351.983398,49.125450 2351.997314,49.757545 
	C2352.018799,50.737926 2351.912109,51.721149 2351.865967,52.588394 
	C2351.384277,52.845207 2351.113037,53.106903 2350.826172,53.125767 
	C2341.270264,53.753433 2341.269287,53.750050 2341.270020,63.262424 
	C2341.270264,69.093681 2341.347900,74.926270 2341.245361,80.755699 
	C2341.184082,84.241760 2342.469971,86.031555 2346.185547,85.993797 
	C2355.347900,85.900681 2364.513184,85.887459 2373.675049,86.001572 
	C2377.352783,86.047371 2378.773193,84.366379 2378.742188,80.866013 
	C2378.682129,74.035660 2378.739746,67.204346 2378.727295,60.373478 
	C2378.715088,53.634396 2378.464600,53.396599 2371.689453,53.264545 
	C2370.698242,53.245228 2369.707764,53.180500 2368.350342,53.120609 
	C2368.350342,51.296478 2368.350342,49.604324 2368.350342,47.934669 
	C2380.237549,45.890537 2384.032227,48.457676 2384.622803,59.296707 
z"/>
<path fill="#A9AAAD" opacity="1.000000" stroke="none" 
	d="
M2476.322754,83.071762 
	C2472.208740,86.016556 2470.296631,85.266800 2470.140137,80.873978 
	C2469.969482,76.081566 2470.101074,71.278381 2470.101074,65.653114 
	C2464.924316,65.653114 2460.153809,65.921333 2455.442871,65.510887 
	C2453.742676,65.362755 2452.184326,63.586040 2450.561279,62.552517 
	C2452.239990,61.400642 2453.835205,59.439068 2455.614014,59.255028 
	C2460.187012,58.781921 2464.841309,59.096897 2470.097168,59.096897 
	C2470.097168,53.830837 2469.824707,49.033951 2470.249268,44.299557 
	C2470.391846,42.708317 2472.307373,41.276016 2473.412354,39.771057 
	C2474.492432,41.295319 2476.356445,42.747715 2476.504150,44.357491 
	C2476.926758,48.964645 2476.652832,53.635654 2476.652832,59.094551 
	C2481.277588,59.094551 2485.535645,59.041924 2489.791504,59.114292 
	C2492.344971,59.157715 2495.888184,58.383644 2495.972412,62.245182 
	C2496.067383,66.603737 2492.231445,65.515320 2489.594971,65.626427 
	C2486.437744,65.759460 2483.266846,65.764282 2480.109375,65.640686 
	C2477.489258,65.538139 2476.600586,66.685989 2476.633789,69.204697 
	C2476.692383,73.693352 2476.536133,78.184822 2476.322754,83.071762 
z"/>
<path fill="#D3A549" opacity="1.000000" stroke="none" 
	d="
M131.666534,58.844604 
	C136.273026,49.074425 144.659790,44.518623 153.951279,46.461926 
	C163.131989,48.382065 169.334625,55.791393 169.607742,65.164253 
	C169.872513,74.250809 164.190582,82.185730 155.393845,84.468452 
	C138.407562,88.876335 126.378807,72.729347 131.666534,58.844604 
M134.649490,61.522038 
	C133.013794,69.348419 135.464111,75.774696 141.388474,79.195854 
	C147.915237,82.964890 155.296204,82.390038 160.792709,77.684586 
	C165.354980,73.778915 167.380814,66.423416 165.413925,60.905731 
	C163.191879,54.672298 157.130508,50.110321 150.876801,49.964680 
	C142.722748,49.774780 138.198929,52.829941 134.649490,61.522038 
z"/>
<path fill="#CF5E54" opacity="1.000000" stroke="none" 
	d="
M89.683746,84.787224 
	C81.046516,86.121338 74.060783,83.841576 69.186813,76.892639 
	C64.838181,70.692688 64.440315,63.828911 67.643829,57.026161 
	C71.409645,49.029339 80.187553,44.754097 88.760628,46.331448 
	C97.206299,47.885353 103.689514,54.727333 104.791512,63.249416 
	C105.882278,71.684677 101.264557,79.880623 93.337120,83.510818 
	C92.285454,83.992401 91.156784,84.305840 89.683746,84.787224 
M69.417938,62.263054 
	C68.035278,68.640694 70.546303,73.514084 75.151108,77.729866 
	C80.881256,82.975929 89.156616,83.125854 95.537704,77.913872 
	C101.318748,73.192001 102.945473,64.286018 99.452789,58.054844 
	C95.704391,51.367432 89.948914,49.020569 82.725655,50.059837 
	C76.030708,51.023087 71.762794,55.104130 69.417938,62.263054 
z"/>
<path fill="#55AB4C" opacity="1.000000" stroke="none" 
	d="
M203.499359,81.637329 
	C194.348053,73.483681 192.608246,63.542477 198.531769,54.768665 
	C204.116516,46.496662 214.870316,43.630638 223.679657,48.066452 
	C233.515762,53.019283 237.419266,65.297272 232.221237,74.932961 
	C226.725403,85.120667 214.375854,88.125488 203.499359,81.637329 
M203.024155,54.559708 
	C202.274719,55.657616 201.436371,56.705872 200.790909,57.861835 
	C197.607819,63.562534 198.396744,71.374481 202.575012,76.061974 
	C207.352142,81.421295 214.678986,83.139542 221.121323,80.411316 
	C227.507721,77.706779 231.467819,71.270241 230.988617,64.593445 
	C230.110657,52.360657 214.340469,44.321163 203.024155,54.559708 
z"/>
<path fill="#B2B2B3" opacity="1.000000" stroke="none" 
	d="
M481.960876,53.957069 
	C478.692535,57.304752 475.675446,60.401314 471.986572,64.187309 
	C476.746582,68.741692 481.637115,73.412781 486.515961,78.095978 
	C487.476959,79.018440 488.818420,79.837624 489.219299,80.974258 
	C489.691956,82.314461 489.813538,84.235657 489.150482,85.344994 
	C488.762878,85.993462 485.960480,86.172363 485.243225,85.498871 
	C478.326935,79.004379 471.537750,72.365044 464.989685,65.502350 
	C464.332611,64.813728 464.950867,61.840107 465.919861,60.842434 
	C471.950928,54.632721 478.165863,48.591251 484.552643,42.748447 
	C485.518066,41.865215 487.698914,42.310539 489.317566,42.141331 
	C489.222504,43.796734 489.738464,45.912338 488.908569,47.014271 
	C487.028748,49.510193 484.485535,51.506481 481.960876,53.957069 
z"/>
<path fill="#58595A" opacity="1.000000" stroke="none" 
	d="
M579.340576,83.965820 
	C583.311829,79.087318 587.239380,74.435226 591.455139,70.060928 
	C598.354431,62.902142 598.413452,65.010880 591.291077,57.731422 
	C587.915710,54.281609 584.281433,51.063850 581.145935,47.413296 
	C580.182800,46.291981 580.483887,44.084812 580.206055,42.374870 
	C581.923584,42.528870 584.260254,42.017464 585.257629,42.945492 
	C591.468323,48.724396 597.379578,54.825077 603.389038,60.820286 
	C605.610107,63.036098 605.399109,65.165565 603.231140,67.306030 
	C597.546082,72.919029 591.916565,78.588570 586.205200,84.174538 
	C584.067261,86.265503 581.744629,87.145760 579.340576,83.965820 
z"/>
<path fill="#A9AAAD" opacity="1.000000" stroke="none" 
	d="
M2357.094727,52.017342 
	C2357.094482,47.541813 2357.094482,43.561485 2357.094482,38.324425 
	C2355.171143,40.160854 2354.124268,41.613850 2352.705566,42.366344 
	C2351.644775,42.929100 2350.104492,42.588337 2348.777832,42.649925 
	C2348.922607,41.466320 2349.031250,40.276215 2349.240479,39.104118 
	C2349.288330,38.836269 2349.675537,38.620430 2349.922119,38.397907 
	C2361.888916,27.594845 2357.785400,26.792509 2369.861084,38.415550 
	C2370.785645,39.305473 2370.780518,41.161201 2371.207275,42.568069 
	C2369.652588,42.313652 2367.991455,42.314167 2366.577148,41.723316 
	C2365.468018,41.259903 2364.664551,40.065014 2362.656982,38.205982 
	C2362.656982,44.399681 2362.660645,49.428040 2362.655518,54.456390 
	C2362.651367,58.615356 2362.801514,62.785614 2362.517578,66.925797 
	C2362.440674,68.042534 2361.033691,69.068062 2360.237549,70.135498 
	C2359.206299,69.085281 2357.364502,68.093346 2357.284180,66.974701 
	C2356.938477,62.174335 2357.111084,57.336639 2357.094727,52.017342 
z"/>
<path fill="#F3F4F6" opacity="1.000000" stroke="none" 
	d="
M1053.874390,82.776176 
	C1053.832642,90.928902 1052.905396,91.869606 1045.338745,91.873596 
	C1037.517578,91.877724 1029.696289,91.892784 1021.875122,91.868492 
	C1015.900269,91.849937 1014.828186,90.803772 1014.792175,84.997116 
	C1014.763306,80.337837 1015.042114,75.660370 1014.718567,71.023483 
	C1014.349060,65.728798 1015.557556,62.049515 1021.644409,62.202381 
	C1023.013855,47.568478 1025.998779,43.116646 1034.251831,43.128098 
	C1042.397949,43.139404 1045.638672,47.849918 1046.914673,61.899654 
	C1053.726196,62.178055 1054.329590,66.821472 1053.919800,72.325516 
	C1053.673340,75.635361 1053.874390,78.978523 1053.874390,82.776176 
M1048.157349,68.019150 
	C1038.921021,68.019150 1029.684692,68.019150 1020.282288,68.019150 
	C1020.282288,74.201126 1020.282288,80.363632 1020.282288,86.471687 
	C1029.922363,86.471687 1039.139038,86.471687 1048.683350,86.471687 
	C1048.683350,80.368301 1048.683350,74.593185 1048.157349,68.019150 
M1027.053101,61.106861 
	C1031.554077,61.754005 1036.055176,62.401150 1041.146973,63.133236 
	C1041.146973,59.719849 1041.193481,57.431786 1041.136841,55.146275 
	C1041.032104,50.919529 1038.432373,48.648506 1034.612915,48.328888 
	C1030.637329,47.996201 1028.039917,50.431591 1027.201172,54.273746 
	C1026.784790,56.181255 1027.053467,58.238270 1027.053101,61.106861 
z"/>
<path fill="#D7D8DB" opacity="1.000000" stroke="none" 
	d="
M1675.130371,60.093697 
	C1673.691406,61.520470 1672.650391,62.915794 1671.276123,63.783432 
	C1670.392578,64.341331 1669.018921,64.123085 1667.864990,64.252716 
	C1668.086670,63.107735 1668.039795,61.804707 1668.597290,60.857269 
	C1669.317383,59.633320 1670.520386,58.693420 1671.627319,57.511665 
	C1665.783936,55.991386 1660.701416,58.452045 1658.067871,63.823635 
	C1655.466187,69.130264 1657.027954,75.921455 1661.696655,79.604034 
	C1666.551270,83.433250 1673.890991,83.523636 1678.154785,79.158371 
	C1680.234619,77.028946 1681.169678,73.798569 1682.708252,71.115547 
	C1683.410889,69.890472 1684.320068,68.783783 1685.135498,67.623352 
	C1685.681519,69.142570 1686.838745,70.732430 1686.672607,72.169365 
	C1685.713867,80.465843 1678.227783,86.650566 1669.597900,86.602844 
	C1661.069946,86.555687 1653.651611,80.004890 1652.842529,71.806892 
	C1651.939453,62.656475 1657.149170,54.878521 1665.518677,52.937645 
	C1667.120850,52.566097 1668.756226,52.337128 1670.352173,52.046741 
	C1670.336792,51.714909 1670.373291,51.535576 1670.315186,51.395416 
	C1669.521362,49.480206 1668.714355,47.570385 1667.910645,45.659252 
	C1669.884277,46.663738 1671.897339,47.599934 1673.810181,48.709309 
	C1674.491455,49.104511 1674.908691,49.939369 1675.481079,50.540581 
	C1679.938110,55.222794 1679.940796,55.220188 1675.130371,60.093697 
z"/>
<path fill="#F2F3F5" opacity="1.000000" stroke="none" 
	d="
M1187.639160,56.988289 
	C1185.907227,64.499542 1183.929810,71.836403 1181.700317,79.095856 
	C1181.436035,79.955978 1179.706055,80.998459 1178.811646,80.869934 
	C1177.732300,80.714813 1176.266357,79.581757 1175.929443,78.556068 
	C1174.379272,73.836945 1173.164307,69.007744 1171.405762,62.699463 
	C1169.336914,69.598251 1167.673584,75.145012 1166.043579,80.580681 
	C1162.492188,81.873940 1160.812134,80.748352 1159.932739,77.179092 
	C1158.309692,70.592735 1156.238159,64.116882 1154.279663,57.339279 
	C1157.327026,56.041264 1158.945679,56.719048 1159.671997,59.911743 
	C1160.738281,64.599091 1162.034546,69.234085 1164.239624,74.171700 
	C1165.302612,70.572769 1166.366577,66.974129 1167.428223,63.374821 
	C1167.850830,61.942181 1168.010620,60.348675 1168.767822,59.123760 
	C1169.403809,58.095020 1170.669556,57.022972 1171.778198,56.873550 
	C1172.498535,56.776470 1173.889038,58.154842 1174.201660,59.123230 
	C1175.727905,63.850216 1176.992432,68.661659 1179.464478,73.703835 
	C1180.694214,69.235901 1181.947021,64.774101 1183.143799,60.297375 
	C1183.726318,58.119270 1184.259399,55.978413 1187.639160,56.988289 
z"/>
<path fill="#F2F3F5" opacity="1.000000" stroke="none" 
	d="
M1222.862549,65.921249 
	C1221.519409,70.266251 1220.441528,74.284477 1218.940796,78.137924 
	C1218.476074,79.330826 1216.877808,80.788963 1215.768433,80.814484 
	C1214.766357,80.837540 1213.190186,79.248611 1212.792236,78.060661 
	C1211.268311,73.511017 1210.116943,68.836563 1208.404785,62.696613 
	C1206.337158,69.594521 1204.673828,75.143761 1203.044067,80.580727 
	C1199.491455,81.873756 1197.812134,80.747780 1196.932861,77.179916 
	C1195.310181,70.595413 1193.239136,64.121399 1191.277954,57.335377 
	C1194.311523,56.056988 1195.936890,56.698761 1196.670776,59.902691 
	C1197.757568,64.648109 1199.085205,69.338394 1201.337646,74.135132 
	C1202.668945,69.432259 1203.835449,64.672256 1205.434326,60.062206 
	C1205.898926,58.722519 1207.600342,57.811760 1208.734863,56.704414 
	C1209.696411,57.807003 1211.116211,58.759266 1211.536255,60.039471 
	C1212.980469,64.442841 1214.075195,68.960922 1215.417480,73.852654 
	C1220.400513,68.965614 1216.798096,59.746948 1223.725342,56.470886 
	C1224.270020,56.712276 1224.814819,56.953671 1225.359619,57.195065 
	C1224.561279,59.973690 1223.762939,62.752316 1222.862549,65.921249 
z"/>
<path fill="#F2F3F5" opacity="1.000000" stroke="none" 
	d="
M1145.562012,79.689163 
	C1142.296021,81.973732 1140.369019,81.490700 1139.484253,77.633270 
	C1138.448242,73.116257 1137.068115,68.678200 1135.413574,62.666832 
	C1133.336914,69.594513 1131.673584,75.143509 1130.043579,80.580902 
	C1126.490479,81.874176 1124.812134,80.746948 1123.932861,77.179337 
	C1122.310303,70.594749 1120.239136,64.120758 1118.278076,57.335629 
	C1121.312744,56.055790 1122.937256,56.700489 1123.671021,59.903419 
	C1124.758179,64.649261 1126.085571,69.340080 1128.337646,74.134590 
	C1129.668945,69.431572 1130.835327,64.671333 1132.434448,60.061237 
	C1132.899048,58.721714 1134.601074,57.811485 1135.735840,56.704449 
	C1136.697144,57.807320 1138.116699,58.759895 1138.536621,60.040321 
	C1139.980835,64.443764 1141.075317,68.961876 1142.417603,73.853004 
	C1147.400391,68.966026 1143.798828,59.747452 1150.725586,56.471066 
	C1151.283936,56.721519 1151.842163,56.971977 1152.400391,57.222435 
	C1150.181641,64.591095 1147.962891,71.959755 1145.562012,79.689163 
z"/>
<path fill="#ECEDF0" opacity="1.000000" stroke="none" 
	d="
M1286.318726,60.567326 
	C1286.909546,58.990360 1287.265625,57.211861 1288.156250,56.883495 
	C1289.036865,56.558853 1290.457275,57.698872 1292.046021,58.366692 
	C1296.873047,55.271912 1301.354980,55.163433 1304.943359,58.441162 
	C1308.934448,62.086678 1309.734497,71.231705 1306.530518,76.581108 
	C1303.517944,81.610764 1299.473755,82.565948 1290.961670,80.063171 
	C1290.961670,83.420647 1290.961670,86.676506 1290.961670,90.015396 
	C1287.442139,91.344101 1286.220581,90.364716 1286.274780,86.889084 
	C1286.409180,78.261597 1286.318359,69.630592 1286.318726,60.567326 
M1303.940674,70.150375 
	C1303.764160,68.342522 1303.811523,66.477242 1303.365479,64.738525 
	C1302.372437,60.866219 1299.621948,59.245255 1295.804565,60.073277 
	C1290.855347,61.146805 1290.791504,65.340363 1290.761597,69.184296 
	C1290.732422,72.940300 1291.220581,76.708115 1295.810913,77.825806 
	C1299.618164,78.752815 1302.177856,76.500473 1303.940674,70.150375 
z"/>
<path fill="#E9EAEE" opacity="1.000000" stroke="none" 
	d="
M1439.069824,80.894958 
	C1438.443481,75.992462 1438.158936,71.208633 1438.092529,66.421761 
	C1438.046509,63.111168 1437.445312,60.286167 1433.493774,59.998760 
	C1429.312012,59.694603 1427.346802,62.245438 1427.069580,66.025696 
	C1426.790161,69.837265 1427.001709,73.682724 1426.925415,77.511887 
	C1426.858032,80.893272 1426.813843,80.892395 1422.319580,80.664642 
	C1422.319580,69.743507 1422.241211,58.784843 1422.461670,47.832199 
	C1422.480225,46.909306 1424.503540,46.026787 1425.595459,45.125519 
	C1425.990601,45.421127 1426.385742,45.716740 1426.780884,46.012348 
	C1426.780884,50.083893 1426.780884,54.155437 1426.780884,58.718765 
	C1428.346680,57.911289 1429.312256,57.335201 1430.337158,56.897549 
	C1436.467529,54.279789 1442.056274,57.379467 1442.582153,64.021408 
	C1442.962158,68.821922 1442.834595,73.685181 1442.540161,78.496391 
	C1442.485352,79.393562 1440.564453,80.176605 1439.069824,80.894958 
z"/>
<path fill="#EBEDF0" opacity="1.000000" stroke="none" 
	d="
M1363.094971,66.445053 
	C1365.684326,63.799660 1367.804077,61.197948 1370.299072,59.027779 
	C1371.838257,57.688950 1373.949707,57.007996 1375.804321,56.031723 
	C1376.139771,56.497185 1376.475342,56.962646 1376.810913,57.428108 
	C1374.175415,60.217491 1371.539917,63.006878 1368.560669,66.160042 
	C1371.771851,70.919464 1374.972046,75.662605 1378.501221,80.893326 
	C1369.594971,81.778465 1370.394653,72.654411 1365.387817,70.044281 
	C1362.347534,71.765259 1362.347534,71.765259 1361.636963,80.564415 
	C1358.726074,81.613297 1357.221924,81.126671 1357.269775,77.451218 
	C1357.404297,67.147118 1357.316650,56.840126 1357.316650,46.021145 
	C1358.834839,45.943188 1360.185181,45.873844 1361.466187,45.808064 
	C1361.924927,53.072109 1362.354370,59.871513 1363.094971,66.445053 
z"/>
<path fill="#EEEFF2" opacity="1.000000" stroke="none" 
	d="
M1463.681885,57.003983 
	C1465.339600,59.519344 1467.475220,61.797848 1467.734131,64.272629 
	C1468.298828,69.672714 1467.908813,75.172668 1467.908813,80.182411 
	C1463.931641,80.704544 1460.318115,81.330048 1456.677979,81.619102 
	C1451.973633,81.992668 1448.547852,79.371895 1447.995605,75.288467 
	C1447.396362,70.857323 1449.420898,67.952980 1454.391113,66.772400 
	C1457.092651,66.130699 1459.930054,66.061050 1463.805908,65.603577 
	C1462.890503,63.628769 1462.335815,60.683212 1461.263306,60.480694 
	C1458.995972,60.052616 1456.405273,60.872604 1454.050415,61.542953 
	C1452.578369,61.961979 1451.294312,63.041515 1449.199463,64.240387 
	C1450.760620,56.648205 1454.934082,54.808796 1463.681885,57.003983 
M1459.893555,77.721573 
	C1463.212646,75.954323 1463.716675,73.146065 1462.712280,68.602600 
	C1459.392090,69.577126 1456.168457,70.253952 1453.246582,71.590691 
	C1452.602417,71.885414 1452.398193,75.411850 1453.087524,75.899078 
	C1454.746948,77.071854 1457.055908,77.325821 1459.893555,77.721573 
z"/>
<path fill="#EEF0F2" opacity="1.000000" stroke="none" 
	d="
M1546.586670,81.502861 
	C1540.235352,79.266304 1537.938965,75.964417 1537.864746,69.431168 
	C1537.790527,62.888168 1540.127686,58.610130 1544.763672,56.803997 
	C1553.124512,53.546631 1559.965332,59.496029 1558.809204,69.708221 
	C1553.527954,69.708221 1548.156372,69.708221 1542.784668,69.708221 
	C1542.423706,70.186272 1542.062622,70.664330 1541.701660,71.142380 
	C1543.352661,73.267113 1544.613159,76.314209 1546.775879,77.229622 
	C1548.558960,77.984337 1551.432251,76.282822 1553.780884,75.538864 
	C1555.292480,75.060059 1556.728882,74.344299 1558.956177,73.420769 
	C1556.250732,80.242592 1554.010376,81.602219 1546.586670,81.502861 
M1543.192871,63.118465 
	C1543.704834,64.313774 1544.116333,66.477142 1544.745728,66.542450 
	C1548.071655,66.887505 1551.452515,66.704338 1554.814331,66.704338 
	C1555.082153,66.161163 1555.349854,65.617981 1555.617676,65.074806 
	C1553.937744,63.344345 1552.476929,60.584320 1550.517578,60.167587 
	C1548.482300,59.734718 1545.965088,61.568256 1543.192871,63.118465 
z"/>
<path fill="#F2F3F5" opacity="1.000000" stroke="none" 
	d="
M1385.787354,80.416107 
	C1380.120483,75.834427 1378.440308,70.193222 1380.572144,63.793339 
	C1382.237793,58.792927 1386.213989,56.000374 1391.533813,56.094498 
	C1396.763306,56.187023 1400.665894,59.227615 1401.967163,64.408394 
	C1403.300537,69.716522 1402.791870,74.782616 1398.662476,78.731812 
	C1395.050293,82.186546 1390.655640,82.378609 1385.787354,80.416107 
M1397.961304,66.889465 
	C1397.124023,62.815708 1395.501343,59.585541 1390.528076,59.904930 
	C1386.605103,60.156868 1385.233521,62.860760 1384.568237,66.166519 
	C1383.354980,72.195518 1386.173340,77.590858 1390.668457,77.961266 
	C1395.254395,78.339149 1397.829224,74.738037 1397.961304,66.889465 
z"/>
<path fill="#E9EBEE" opacity="1.000000" stroke="none" 
	d="
M1526.946777,63.697227 
	C1525.673584,60.242256 1523.024536,58.953175 1520.506470,60.342140 
	C1518.531860,61.431347 1516.537842,64.088791 1516.237915,66.280220 
	C1515.594604,70.979836 1516.040649,75.828552 1516.040649,80.780571 
	C1514.231445,80.780571 1512.997070,80.780571 1511.533936,80.780571 
	C1511.533936,72.775856 1511.533936,65.031357 1511.533936,55.946110 
	C1516.149536,60.189545 1519.829590,55.762600 1524.002930,56.054539 
	C1528.586304,56.375160 1531.166626,59.067909 1531.466309,63.296810 
	C1531.874268,69.050865 1531.568115,74.855530 1531.568115,80.767227 
	C1529.938599,80.767227 1528.702148,80.767227 1527.013062,80.767227 
	C1527.013062,75.046219 1527.013062,69.588676 1526.946777,63.697227 
z"/>
<path fill="#F3F4F6" opacity="1.000000" stroke="none" 
	d="
M1275.970215,64.896912 
	C1275.970825,62.773811 1275.620483,61.004646 1276.082031,59.481548 
	C1276.455444,58.249481 1277.806519,57.313740 1278.723877,56.246552 
	C1279.094482,56.564037 1279.465088,56.881523 1279.835693,57.199009 
	C1279.899536,57.837009 1280.017700,58.474911 1280.018799,59.113029 
	C1280.031982,66.245903 1280.027222,73.378807 1280.027222,79.920189 
	C1276.015259,80.530197 1272.379272,81.344772 1268.706543,81.575241 
	C1264.110107,81.863701 1261.003906,79.294495 1260.612427,74.602692 
	C1260.184937,69.482231 1260.234985,64.296799 1260.514648,59.163521 
	C1260.570923,58.130882 1262.589966,57.205143 1263.704102,56.230118 
	C1264.105225,56.563908 1264.506348,56.897697 1264.907471,57.231491 
	C1264.907471,62.180328 1264.961304,67.129967 1264.887939,72.077713 
	C1264.841919,75.169937 1266.006348,77.398842 1269.200562,77.736717 
	C1272.685059,78.105301 1274.979004,76.369896 1275.455566,72.803894 
	C1275.784302,70.342674 1275.809326,67.840851 1275.970215,64.896912 
z"/>
<path fill="#EEEFF2" opacity="1.000000" stroke="none" 
	d="
M1242.217529,61.203125 
	C1243.217651,63.010529 1244.171265,64.885811 1245.699707,65.795815 
	C1247.793823,67.042641 1250.488892,67.259674 1252.632568,68.448318 
	C1256.756714,70.735252 1257.122437,76.358047 1253.579224,79.426277 
	C1248.074097,84.193420 1238.911133,81.586494 1236.192383,73.191048 
	C1238.560181,74.305695 1240.029663,75.071899 1241.556641,75.697929 
	C1243.590332,76.531776 1245.638916,77.705009 1247.739990,77.844101 
	C1248.834961,77.916580 1250.809326,76.215462 1251.008423,75.074875 
	C1251.207031,73.937294 1249.991211,71.924431 1248.850342,71.313438 
	C1246.542847,70.077576 1243.549316,69.995758 1241.438599,68.557648 
	C1239.637817,67.330856 1237.513916,64.786522 1237.646362,62.979954 
	C1237.802490,60.852192 1239.794312,58.062584 1241.764038,57.015076 
	C1247.437988,53.997528 1253.374878,56.805653 1255.061279,63.043056 
	C1250.427124,64.478867 1247.360596,56.167194 1242.217529,61.203125 
z"/>
<path fill="#F5F6F7" opacity="1.000000" stroke="none" 
	d="
M1352.448486,78.293686 
	C1353.330566,82.067825 1350.442139,81.731728 1348.974487,81.136627 
	C1347.013672,80.341530 1344.425903,78.682358 1344.027710,76.952255 
	C1343.228271,73.478935 1343.728760,69.706093 1343.695557,66.056831 
	C1343.687988,65.227127 1344.014282,64.180161 1343.629761,63.607502 
	C1342.372803,61.736271 1339.759399,60.041046 1339.754150,58.272068 
	C1339.749023,56.521797 1342.337036,54.808315 1343.671631,52.993416 
	C1344.491211,51.878712 1345.092773,50.603722 1345.792358,49.400730 
	C1346.494141,50.594715 1347.369385,51.725288 1347.837280,53.004791 
	C1348.153931,53.870766 1347.897705,54.946274 1347.897705,56.184986 
	C1349.692749,56.491184 1351.255859,56.757832 1352.818970,57.024475 
	C1353.080933,57.431374 1353.342773,57.838272 1353.604736,58.245171 
	C1352.052856,59.242752 1350.500854,60.240334 1347.998901,61.848579 
	C1347.998901,65.409828 1347.729248,70.175819 1348.188599,74.870506 
	C1348.303223,76.044052 1350.765259,76.987976 1352.448486,78.293686 
z"/>
<path fill="#F5F6F7" opacity="1.000000" stroke="none" 
	d="
M1414.383789,77.434830 
	C1415.767212,78.366608 1416.801270,79.068260 1417.835449,79.769943 
	C1416.782471,80.280098 1415.762817,81.131630 1414.670288,81.238754 
	C1410.794312,81.618759 1408.723511,79.756989 1408.708862,75.788589 
	C1408.696533,72.471329 1408.754150,69.152725 1408.676392,65.837158 
	C1408.618652,63.379017 1409.670654,60.234249 1405.407227,59.979374 
	C1405.178711,59.965714 1404.557373,57.732483 1404.964722,57.257076 
	C1408.472046,53.163319 1408.716064,52.895657 1409.205444,49.551155 
	C1415.363159,48.778320 1411.572876,54.258503 1413.514648,55.691189 
	C1415.095825,56.676365 1416.676880,57.661537 1418.258057,58.646698 
	C1416.720337,59.499062 1415.182739,60.351437 1412.544067,61.814144 
	C1412.980103,66.316399 1413.507446,71.760551 1414.383789,77.434830 
z"/>
<path fill="#F5F6F7" opacity="1.000000" stroke="none" 
	d="
M1565.696167,74.387772 
	C1565.695068,71.132439 1565.695190,68.314064 1565.693970,65.495682 
	C1565.693604,64.832542 1565.954346,63.981922 1565.640869,63.538994 
	C1564.338379,61.698116 1561.982788,60.117210 1561.681274,58.181187 
	C1561.337891,55.976391 1566.988159,57.098564 1565.835815,52.922550 
	C1565.582153,52.003265 1567.121704,50.589100 1567.835449,49.402786 
	C1568.522949,50.608780 1569.366089,51.756798 1569.843994,53.040813 
	C1570.171021,53.919563 1569.989014,54.987762 1570.046387,56.224800 
	C1571.714111,56.498493 1573.280884,56.755611 1574.847656,57.012730 
	C1575.104858,57.430054 1575.362061,57.847378 1575.619385,58.264706 
	C1574.052612,59.256882 1572.485718,60.249062 1569.999512,61.823486 
	C1569.999512,65.422638 1569.808228,70.173622 1570.143555,74.887115 
	C1570.220703,75.969757 1572.119263,76.912079 1573.157593,77.941154 
	C1573.740967,78.519325 1574.279419,79.143021 1574.838135,79.746208 
	C1574.124390,80.257111 1573.471191,81.073563 1572.687012,81.228508 
	C1568.148438,82.125381 1566.222046,80.306030 1565.696167,74.387772 
z"/>
<path fill="#E9EBEE" opacity="1.000000" stroke="none" 
	d="
M1478.959473,68.509628 
	C1478.943359,72.758369 1478.943359,76.559158 1478.943359,80.640244 
	C1476.224487,81.231834 1474.221558,81.656921 1474.278931,77.912758 
	C1474.383057,71.115189 1474.308472,64.314888 1474.308472,56.141003 
	C1476.575928,57.095531 1478.170166,57.766674 1480.348389,58.683647 
	C1481.450806,58.091904 1483.697754,56.885933 1485.944580,55.679958 
	C1486.425415,56.083824 1486.906372,56.487690 1487.387207,56.891552 
	C1486.474487,58.214050 1485.820435,60.305031 1484.600708,60.715523 
	C1480.881714,61.967209 1479.308350,64.433243 1478.959473,68.509628 
z"/>
<path fill="#E9EBEE" opacity="1.000000" stroke="none" 
	d="
M1318.937500,70.303360 
	C1318.937012,74.049248 1318.937012,77.336365 1318.937012,80.775116 
	C1317.223267,80.775116 1315.989868,80.775116 1314.531006,80.775116 
	C1314.531006,72.771507 1314.531006,65.033630 1314.531006,55.872803 
	C1316.821533,57.133579 1318.372559,57.987366 1319.963745,58.863209 
	C1321.641968,58.001038 1323.907593,56.837181 1326.173096,55.673325 
	C1326.616333,56.102028 1327.059570,56.530735 1327.502930,56.959438 
	C1326.618774,58.244286 1325.971191,60.331226 1324.809326,60.673939 
	C1319.997314,62.093262 1318.887085,65.510689 1318.937500,70.303360 
z"/>
<path fill="#E6E8EC" opacity="1.000000" stroke="none" 
	d="
M1491.288330,71.933212 
	C1491.288330,66.804024 1491.288330,62.163017 1491.288330,57.021427 
	C1492.787231,56.925968 1494.141479,56.839722 1495.737061,56.738110 
	C1495.737061,64.941513 1495.737061,72.672867 1495.737061,80.577011 
	C1492.546753,81.719124 1491.011963,80.927834 1491.269165,77.396866 
	C1491.389404,75.746666 1491.288818,74.080391 1491.288330,71.933212 
z"/>
<path fill="#E6E8EC" opacity="1.000000" stroke="none" 
	d="
M1334.948120,70.965935 
	C1334.948120,74.423744 1334.948120,77.390938 1334.948120,80.306633 
	C1331.556152,81.837791 1330.175903,81.051926 1330.250732,77.462059 
	C1330.388916,70.833305 1330.290283,64.199600 1330.290283,57.056301 
	C1331.759399,56.938984 1333.105957,56.831459 1334.948120,56.684353 
	C1334.948120,61.603355 1334.948120,66.039330 1334.948120,70.965935 
z"/>
<path fill="#E6E8EC" opacity="1.000000" stroke="none" 
	d="
M1491.733398,50.506264 
	C1490.879272,46.844139 1491.361572,44.593754 1495.665161,46.147518 
	C1496.187256,49.148117 1496.678223,51.999165 1491.733398,50.506264 
z"/>
<path fill="#E6E8EC" opacity="1.000000" stroke="none" 
	d="
M1334.941040,48.259712 
	C1333.861450,49.646122 1332.781372,50.631725 1331.701416,51.617332 
	C1331.338867,51.322628 1330.976318,51.027924 1330.613770,50.733223 
	C1330.613770,49.220207 1330.613770,47.707188 1330.613770,44.537197 
	C1332.616089,46.074375 1333.778320,46.966640 1334.941040,48.259712 
z"/>
<path fill="#FFFFFF" opacity="1.000000" stroke="none" 
	d="
M1230.989868,78.851128 
	C1229.909668,80.008041 1228.835815,80.710487 1227.026733,81.893860 
	C1227.026733,78.604065 1227.026733,76.571442 1227.026733,74.485329 
	C1231.496216,72.744225 1231.027222,75.789597 1230.989868,78.851128 
z"/>
<path fill="#FFFFFF" opacity="1.000000" stroke="none" 
	d="
M1504.820312,80.931396 
	C1500.150879,81.154251 1501.870483,77.904053 1501.937622,76.122864 
	C1501.972290,75.205521 1503.817383,74.356430 1504.844238,73.476479 
	C1505.284668,73.803055 1505.724976,74.129623 1506.165405,74.456192 
	C1505.867065,76.598404 1505.568848,78.740616 1504.820312,80.931396 
z"/>
<path fill="#2D3A53" opacity="1.000000" stroke="none" 
	d="
M921.403564,63.000000 
	C921.403870,55.884151 921.403870,49.268188 921.403870,41.755566 
	C927.087708,43.840870 932.197327,45.552418 937.132324,47.670601 
	C938.063110,48.070137 938.688049,50.061317 938.779297,51.365261 
	C939.010437,54.670063 938.859253,58.001667 938.859375,61.322533 
	C938.859680,74.825813 935.244019,79.872414 921.403259,84.945030 
	C921.403259,77.631714 921.403259,70.565804 921.403564,63.000000 
z"/>
<path fill="#26344E" opacity="1.000000" stroke="none" 
	d="
M2584.934814,52.686714 
	C2594.450684,52.383076 2603.579590,52.099712 2612.689697,52.398495 
	C2614.160645,52.446743 2616.705566,55.028297 2616.779297,56.535305 
	C2617.183594,64.816727 2616.970215,73.128098 2616.976074,81.429161 
	C2616.978271,84.514595 2615.428467,85.984795 2612.365723,85.979820 
	C2604.064697,85.966347 2595.756104,86.155937 2587.469727,85.807495 
	C2585.954346,85.743790 2583.310547,83.572647 2583.259033,82.290802 
	C2582.898193,73.341957 2583.044189,64.370644 2583.155518,55.408104 
	C2583.166016,54.566559 2584.058594,53.735970 2584.934814,52.686714 
z"/>
<path fill="#323F56" opacity="1.000000" stroke="none" 
	d="
M2592.011230,46.620178 
	C2589.862793,46.623764 2588.195557,46.576160 2586.532715,46.640564 
	C2579.913330,46.896992 2577.707520,49.165691 2577.634277,55.904129 
	C2577.574707,61.378613 2577.622070,66.854256 2577.622070,72.204971 
	C2571.204834,74.084557 2569.487793,72.999794 2569.408203,67.078773 
	C2569.309814,59.753517 2569.445312,52.425304 2569.372314,45.099442 
	C2569.330811,40.920338 2571.212891,39.040913 2575.419434,39.101295 
	C2582.910889,39.208828 2590.405518,39.108406 2597.898193,39.157955 
	C2599.041992,39.165520 2600.629883,39.113319 2601.229248,39.786194 
	C2602.319580,41.010571 2603.294189,42.737968 2603.361328,44.296600 
	C2603.392578,45.020229 2601.252930,46.324604 2599.972656,46.512497 
	C2597.527100,46.871357 2594.992432,46.619068 2592.011230,46.620178 
z"/>
<path fill="#2A3750" opacity="1.000000" stroke="none" 
	d="
M345.162231,79.809059 
	C345.161530,68.212845 345.161530,57.096104 345.161530,45.288643 
	C354.925903,45.288643 364.328125,45.143074 373.712555,45.485546 
	C374.801392,45.525280 376.647552,48.247967 376.688660,49.766132 
	C376.958344,59.733765 376.808411,69.712273 376.841309,79.687073 
	C376.851318,82.715591 375.569489,84.404549 372.421112,84.406616 
	C364.441284,84.411873 356.460175,84.333069 348.482269,84.458183 
	C345.293884,84.508179 344.996887,82.687508 345.162231,79.809059 
z"/>
<path fill="#2A3851" opacity="1.000000" stroke="none" 
	d="
M340.001709,71.986542 
	C340.001709,76.274605 340.001709,80.065620 340.001709,83.415390 
	C339.307373,83.930420 339.190063,84.089317 339.052856,84.108978 
	C324.731659,86.161491 323.997986,85.540161 323.998413,71.373077 
	C323.998596,64.378212 324.066772,57.382458 323.973419,50.388851 
	C323.925873,46.828308 325.492981,45.128761 329.037537,45.157799 
	C332.495422,45.186131 335.953705,45.163960 340.001709,45.163960 
	C340.001709,54.276711 340.001709,62.883095 340.001709,71.986542 
M328.570007,51.600231 
	C328.294830,52.421021 328.019623,53.241810 327.744415,54.062592 
	C330.264893,54.325394 332.782471,54.665306 335.309265,54.760201 
	C335.651886,54.773067 336.040619,53.557877 336.407990,52.911304 
	C334.686218,52.314693 332.982452,51.654915 331.232666,51.156567 
	C330.639526,50.987625 329.930237,51.226475 328.570007,51.600231 
M327.893860,68.825027 
	C330.146820,69.064362 332.397308,69.417519 334.654388,69.466446 
	C335.250854,69.479370 336.053619,68.655716 336.400787,68.019333 
	C336.589417,67.673691 336.173859,66.743462 335.763794,66.370644 
	C334.061859,64.823357 328.989624,65.975403 327.893860,68.825027 
M335.577454,61.899582 
	C335.338318,60.813702 335.194489,58.822849 334.844910,58.786037 
	C332.202026,58.507755 329.062561,57.088951 326.624420,62.101974 
	C329.927429,62.101974 332.369141,62.101974 335.577454,61.899582 
z"/>
<path fill="#F4BD50" opacity="1.000000" stroke="none" 
	d="
M134.772202,61.140034 
	C138.198929,52.829941 142.722748,49.774780 150.876801,49.964680 
	C157.130508,50.110321 163.191879,54.672298 165.413925,60.905731 
	C167.380814,66.423416 165.354980,73.778915 160.792709,77.684586 
	C155.296204,82.390038 147.915237,82.964890 141.388474,79.195854 
	C135.464111,75.774696 133.013794,69.348419 134.772202,61.140034 
z"/>
<path fill="#ED6A5E" opacity="1.000000" stroke="none" 
	d="
M69.548660,61.882786 
	C71.762794,55.104130 76.030708,51.023087 82.725655,50.059837 
	C89.948914,49.020569 95.704391,51.367432 99.452789,58.054844 
	C102.945473,64.286018 101.318748,73.192001 95.537704,77.913872 
	C89.156616,83.125854 80.881256,82.975929 75.151108,77.729866 
	C70.546303,73.514084 68.035278,68.640694 69.548660,61.882786 
z"/>
<path fill="#61C454" opacity="1.000000" stroke="none" 
	d="
M203.286011,54.297127 
	C214.340469,44.321163 230.110657,52.360657 230.988617,64.593445 
	C231.467819,71.270241 227.507721,77.706779 221.121323,80.411316 
	C214.678986,83.139542 207.352142,81.421295 202.575012,76.061974 
	C198.396744,71.374481 197.607819,63.562534 200.790909,57.861835 
	C201.436371,56.705872 202.274719,55.657616 203.286011,54.297127 
z"/>
<path fill="#405578" opacity="1.000000" stroke="none" 
	d="
M1048.420410,68.418610 
	C1048.683350,74.593185 1048.683350,80.368301 1048.683350,86.471687 
	C1039.139038,86.471687 1029.922363,86.471687 1020.282288,86.471687 
	C1020.282288,80.363632 1020.282288,74.201126 1020.282288,68.019150 
	C1029.684692,68.019150 1038.921021,68.019150 1048.420410,68.418610 
z"/>
<path fill="#465A7C" opacity="1.000000" stroke="none" 
	d="
M1027.032593,60.667248 
	C1027.053467,58.238270 1026.784790,56.181255 1027.201172,54.273746 
	C1028.039917,50.431591 1030.637329,47.996201 1034.612915,48.328888 
	C1038.432373,48.648506 1041.032104,50.919529 1041.136841,55.146275 
	C1041.193481,57.431786 1041.146973,59.719849 1041.146973,63.133236 
	C1036.055176,62.401150 1031.554077,61.754005 1027.032593,60.667248 
z"/>
<path fill="#405578" opacity="1.000000" stroke="none" 
	d="
M1303.886719,70.555550 
	C1302.177856,76.500473 1299.618164,78.752815 1295.810913,77.825806 
	C1291.220581,76.708115 1290.732422,72.940300 1290.761597,69.184296 
	C1290.791504,65.340363 1290.855347,61.146805 1295.804565,60.073277 
	C1299.621948,59.245255 1302.372437,60.866219 1303.365479,64.738525 
	C1303.811523,66.477242 1303.764160,68.342522 1303.886719,70.555550 
z"/>
<path fill="#465A7C" opacity="1.000000" stroke="none" 
	d="
M1459.498169,77.835999 
	C1457.055908,77.325821 1454.746948,77.071854 1453.087524,75.899078 
	C1452.398193,75.411850 1452.602417,71.885414 1453.246582,71.590691 
	C1456.168457,70.253952 1459.392090,69.577126 1462.712280,68.602600 
	C1463.716675,73.146065 1463.212646,75.954323 1459.498169,77.835999 
z"/>
<path fill="#4B5E7E" opacity="1.000000" stroke="none" 
	d="
M1543.425781,62.764565 
	C1545.965088,61.568256 1548.482300,59.734718 1550.517578,60.167587 
	C1552.476929,60.584320 1553.937744,63.344345 1555.617676,65.074806 
	C1555.349854,65.617981 1555.082153,66.161163 1554.814331,66.704338 
	C1551.452515,66.704338 1548.071655,66.887505 1544.745728,66.542450 
	C1544.116333,66.477142 1543.704834,64.313774 1543.425781,62.764565 
z"/>
<path fill="#415578" opacity="1.000000" stroke="none" 
	d="
M1397.975342,67.305817 
	C1397.829224,74.738037 1395.254395,78.339149 1390.668457,77.961266 
	C1386.173340,77.590858 1383.354980,72.195518 1384.568237,66.166519 
	C1385.233521,62.860760 1386.605103,60.156868 1390.528076,59.904930 
	C1395.501343,59.585541 1397.124023,62.815708 1397.975342,67.305817 
z"/>
<path fill="#A9AAAD" opacity="1.000000" stroke="none" 
	d="
M328.921997,51.439606 
	C329.930237,51.226475 330.639526,50.987625 331.232666,51.156567 
	C332.982452,51.654915 334.686218,52.314693 336.407990,52.911308 
	C336.040619,53.557877 335.651886,54.773067 335.309265,54.760201 
	C332.782471,54.665306 330.264893,54.325394 327.744446,54.062595 
	C328.019623,53.241810 328.294830,52.421021 328.921997,51.439606 
z"/>
<path fill="#A2A4A8" opacity="1.000000" stroke="none" 
	d="
M327.687500,68.499756 
	C328.989624,65.975403 334.061859,64.823357 335.763794,66.370644 
	C336.173859,66.743462 336.589417,67.673691 336.400787,68.019333 
	C336.053619,68.655716 335.250854,69.479370 334.654388,69.466446 
	C332.397308,69.417519 330.146820,69.064362 327.687500,68.499756 
z"/>
<path fill="#A9AAAD" opacity="1.000000" stroke="none" 
	d="
M335.194153,62.000778 
	C332.369141,62.101974 329.927429,62.101974 326.624420,62.101974 
	C329.062561,57.088951 332.202026,58.507755 334.844910,58.786037 
	C335.194489,58.822849 335.338318,60.813702 335.194153,62.000778 
z"/>
</svg>